<?xml version="1.0" encoding="UTF-8"?>
<svg id="Layer_2" data-name="Layer 2" xmlns="http://www.w3.org/2000/svg" viewBox="0 0 122.89 110.3">
  <defs>
    <style>
      .cls-1 {
        fill: #f89f22;
      }
    </style>
  </defs>
  <g id="Layer_1-2" data-name="Layer 1">
    <path class="cls-1" d="m13.91,67.72c1.15.54,2.34.96,3.59,1.28,1.24.32,2.54.55,3.87.67,1.18.11,2.4.15,3.65.12,1.08-.03,2.2-.11,3.35-.24-.26-1.96-.39-3.7-.34-5.26.05-1.73.33-3.22.89-4.53.52-1.21,1.26-2.23,2.27-3.08.82-.7,1.82-1.28,3.03-1.76-.79-.75-1.51-1.43-2.14-2.07-.8-.81-1.46-1.55-1.97-2.27-1.28-1.79-1.7-3.34-1.08-4.99.59-1.56,2.17-3.15,4.91-5.1,1.41-1,2-1.88,2.17-2.75.18-.88-.07-1.83-.34-2.88-.15-.6-.31-1.22-.43-1.83-.12-.59-.21-1.2-.25-1.86-1.03-.96-2.52-2.26-4.32-3.09-1.85-.85-4.05-1.22-6.43-.21-.44.18-.91.17-1.31.01-.41-.17-.75-.49-.93-.92h0c-.18-.44-.17-.9-.01-1.31.17-.41.49-.75.92-.93h.01c2.86-1.21,5.46-1.09,7.69-.38,1.91.61,3.55,1.66,4.87,2.7.24-.8.58-1.65,1.05-2.55.61-1.18,1.44-2.45,2.55-3.83.49-.6.97-1.23,1.43-1.9s.89-1.41,1.28-2.23c.39-.83.74-1.77,1.02-2.86.28-1.1.5-2.34.63-3.78h0c.04-.47.27-.88.61-1.17.34-.28.78-.44,1.25-.4s.88.27,1.17.61l.03.04c.26.33.41.76.37,1.22v.05c-.16,1.64-.41,3.07-.74,4.34-.34,1.29-.75,2.41-1.22,3.41-.47,1.01-.99,1.88-1.52,2.67-.53.78-1.08,1.48-1.62,2.16-1.23,1.53-2.04,2.89-2.55,4.1-.49,1.17-.7,2.21-.75,3.15.04.14.06.29.05.44,0,.15-.02.3-.06.44.03.54.1,1.05.2,1.55.11.55.23,1.04.36,1.51.42,1.62.79,3.08.48,4.59-.32,1.52-1.32,3.03-3.64,4.68-1.83,1.3-2.89,2.28-3.33,3.14-.37.73-.23,1.4.3,2.16.79,1.12,2.24,2.49,4.11,4.25.77-1.74,1.69-3.21,2.74-4.41,1.2-1.37,2.57-2.39,4.11-3.08,1.7-.76,3.57-1.1,5.6-1.03,2.02.06,4.2.52,6.53,1.35.45.16.79.49.98.89.19.39.22.85.07,1.29l-.02.05c-.16.44-.49.77-.88.95-.39.19-.85.22-1.29.07h-.04c-1.94-.7-3.71-1.09-5.31-1.15-1.58-.07-3,.17-4.25.73-1.24.55-2.34,1.44-3.31,2.66-.98,1.25-1.81,2.85-2.49,4.82h0c-.06.17-.15.33-.25.48-.09.12-.2.23-.32.32l-.02.03s-.04.05-.08.09c-.12.13-.26.23-.4.31-.13.07-.26.13-.4.16-.02,0-.05.02-.08.02h0c-1.66.37-2.93.86-3.89,1.49-.93.61-1.55,1.35-1.94,2.25-.43,1-.62,2.24-.63,3.73-.01,1.53.18,3.32.49,5.41v.02c.01.05.01.11.01.17.9,1.13,1.95,2.09,3.12,2.91,1.23.86,2.6,1.56,4.1,2.13,1.61.62,3.36,1.08,5.23,1.41s3.86.54,5.95.65c.1,0,.19.02.28.04h0c.09.02.18.04.26.08,1.09.34,2.4.43,3.89.31,1.53-.12,3.23-.46,5.06-.95,1.93-.52,3.98-1.22,6.1-2.02,2.12-.8,4.33-1.72,6.56-2.68h.03c.05-.03.11-.05.16-.07.07-.02.13-.04.19-.05l12.12-3.11v-7.02s0-.07.01-.1v-.05c.1-1.15.3-2.19.59-3.1.3-.93.69-1.73,1.18-2.41.53-.74,1.17-1.33,1.91-1.77.73-.43,1.56-.71,2.48-.83.06,0,.1-.02.14-.02h.01c.05,0,.09,0,.13,0l1.29.02h.05c2.79.04,5.36.07,7.3-2.12,1-1.12,1.64-2.3,2.01-3.52s.46-2.48.34-3.75c-.12-1.34-.47-2.69-.95-4.04-.49-1.36-1.13-2.69-1.83-3.98-.23-.42-.26-.89-.14-1.31.12-.42.41-.8.83-1.02h.01c.41-.22.88-.26,1.3-.13.42.12.8.41,1.02.83h0c.79,1.44,1.51,2.97,2.07,4.53.57,1.58.97,3.2,1.12,4.83.15,1.7.03,3.4-.47,5.06s-1.38,3.27-2.73,4.79c-2.99,3.36-6.33,3.31-9.95,3.26h-.05c-.23,0-.49,0-1.1,0-.43.06-.81.19-1.14.39s-.62.46-.87.8c-.29.4-.53.91-.72,1.51-.19.62-.32,1.33-.4,2.15v6.12l10.93-2.82h.02s.04-.01.07-.02l13-2.54c.63-.41,1.22-.85,1.76-1.31.58-.49,1.1-.99,1.56-1.51,1.43-1.59,2.39-3.37,2.97-5.27.62-2.05.79-4.25.59-6.49-.19-2.17-.72-4.38-1.52-6.55-.85-2.32-1.99-4.59-3.34-6.73-.94-1.49-1.99-2.92-3.1-4.25-1.13-1.34-2.32-2.58-3.54-3.68-.1-.09-.19-.19-.26-.29s-.13-.2-.17-.31v-.03c-1.08-2.65-2.28-5.18-3.75-7.47-1.46-2.28-3.2-4.32-5.34-6.01-2.14-1.69-4.7-3.04-7.84-3.94-3.16-.91-6.9-1.37-11.36-1.26-.11,0-.21,0-.3-.02-.09-.01-.18-.04-.27-.06l-.16-.05c-.85.59-1.6,1.21-2.25,1.87-.7.7-1.28,1.42-1.76,2.18-.48.77-.86,1.57-1.14,2.4-.28.84-.46,1.71-.54,2.61-.04.43-.23.8-.52,1.08-.28.27-.64.44-1.04.47-.03,0-.06.01-.09.01h-.01c-1.55.09-2.91.42-4.09.96-1.25.57-2.31,1.37-3.19,2.37-.92,1.03-1.66,2.27-2.24,3.68-.61,1.46-1.05,3.1-1.33,4.86.19.46.34.94.46,1.43.13.52.23,1.05.34,1.58.16.84.33,1.68.6,2.34.24.58.57,1.02,1.08,1.19.45.15.8.46.99.86.2.39.25.86.1,1.31s-.47.8-.86.99c-.39.2-.86.25-1.31.1l-.04-.02c-1.47-.5-2.34-1.42-2.91-2.54-.55-1.09-.79-2.33-1.03-3.58-.06-.32-.12-.63-.2-.99v-.04c-.06-.24-.12-.48-.19-.7-1.66-1.25-3.57-.82-5.42.29h0c-1.99,1.19-3.94,3.14-5.5,4.7-.33.33-.65.65-.95.94-.3.29-.59.57-.89.84-.35.32-.8.46-1.24.44-.43-.02-.85-.21-1.16-.55h0s-.04-.04-.05-.06c-.29-.35-.42-.78-.4-1.2.02-.43.21-.85.55-1.16h0s.04-.03.06-.05c.44-.4,1.02-.98,1.65-1.61,0,0,.03-.03.04-.04,1.71-1.72,3.8-3.81,6.11-5.23,2.22-1.36,4.63-2.08,7.07-1.25.36-1.68.86-3.25,1.5-4.69.69-1.54,1.56-2.93,2.62-4.12,1.09-1.22,2.37-2.23,3.85-2.98,1.31-.66,2.79-1.13,4.44-1.35.16-.84.38-1.66.68-2.46.34-.92.78-1.8,1.32-2.65.45-.72.98-1.41,1.57-2.07.39-.44.81-.86,1.26-1.27-1.68-.44-3.35-.85-5.01-1.22-1.91-.42-3.8-.78-5.67-1.07l-.07.03c-.62.23-1.2.68-1.73,1.29-.62.71-1.18,1.64-1.67,2.66-.65,1.36-1.16,2.87-1.54,4.31-.49,1.84-.77,3.59-.87,4.82-.04.47-.27.89-.6,1.17-.33.28-.77.44-1.23.4h-.04c-.46-.04-.87-.27-1.15-.6-.28-.33-.44-.77-.4-1.23v-.04c.12-1.38.44-3.35.99-5.42.43-1.64,1.01-3.35,1.75-4.9.36-.75.75-1.47,1.2-2.13.22-.33.44-.64.68-.93-.85-.07-1.69-.12-2.54-.16-1.17-.05-2.34-.05-3.5-.02-4.09.12-8.15.76-12.21,2.09-3.89,1.28-7.77,3.19-11.69,5.91.45.29.87.61,1.28.94.61.51,1.17,1.06,1.68,1.65.71.83,1.3,1.75,1.76,2.72.45.95.76,1.95.92,2.98.07.47-.06.92-.32,1.28-.26.35-.66.61-1.13.68s-.92-.06-1.28-.32c-.35-.26-.61-.66-.68-1.13-.11-.71-.33-1.4-.64-2.06-.32-.68-.75-1.33-1.26-1.93-.52-.61-1.13-1.17-1.82-1.66-.66-.47-1.38-.88-2.15-1.19-.78.42-1.55.85-2.29,1.3-.82.49-1.62,1.01-2.39,1.54-1.08.75-2.11,1.56-3.09,2.44-.85.76-1.65,1.57-2.39,2.44,1.92,1.57,2.68,3.24,2.82,4.99.15,1.82-.38,3.69-.94,5.65,0,.02-.01.04-.02.07-1.01,3.57-2.13,7.57,2.81,11.79.36.31.56.74.6,1.17.03.44-.1.89-.41,1.25s-.74.56-1.17.6c-.44.03-.89-.1-1.25-.41-3.31-2.82-4.6-5.54-4.9-8.13-.3-2.57.38-4.97,1.02-7.23.42-1.48.82-2.89.75-4.14-.06-1.08-.49-2.1-1.6-3.02-1.48,1.67-2.85,3.4-4.07,5.23-1.3,1.95-2.41,4.02-3.29,6.24-.98,2.49-1.66,5.19-1.95,8.14-.29,2.96-.19,6.19.38,9.75.3,1.88.64,3.55,1.08,5.04.44,1.46.98,2.76,1.7,3.91.7,1.12,1.59,2.13,2.75,3.07,1.14.93,2.58,1.8,4.36,2.63h0Zm72.92-25.29c2.21,2.05,2.91,3.61,2.65,5.16-.26,1.56-1.5,2.97-3.15,4.87h0c-.78.89-1.67,1.92-2.52,3.07-.28.38-.69.61-1.13.68-.43.06-.89-.04-1.27-.32s-.61-.69-.68-1.13c-.06-.43.04-.89.32-1.27,1-1.34,1.9-2.38,2.68-3.28h.01c1-1.16,1.75-2.02,1.93-2.81.15-.67-.12-1.37-1.05-2.32l-.37.14h0c-.2.07-.49.18-.83.3-.32.11-.67.24-1.03.37-.38.14-.8.31-1.23.49-.17.07-.32.14-.47.21l-.48.22c-.36.17-.73.34-1.1.5-.39.16-.78.31-1.18.43-.53.16-1.09.34-1.56.49h-.03c-1.28.41-1.96.63-2.9.67-.5.02-1-.02-1.63-.13-.62-.1-1.34-.26-2.33-.47l-.95-.2s-.05,0-.08-.02l-.1-.03-3.98-1.33s-.05,0-.07-.02c-.44-.15-.77-.46-.97-.85-.19-.38-.24-.84-.11-1.28l.02-.06c.15-.44.46-.77.85-.97.39-.19.84-.24,1.28-.11.03,0,.05.02.07.03l3.85,1.28.9.19c.88.19,1.53.33,2.04.41.48.08.81.12,1.08.11.43-.02.97-.19,1.98-.51.25-.07.49-.16.74-.23.3-.09.61-.19.91-.28.61-.18,1.21-.46,1.81-.74l.52-.24c.18-.08.36-.16.55-.24,1.06-.45,1.83-.72,2.45-.94.62-.22.94-.33,1.02-.55.13-.32.08-1-.03-2.36-.12-1.56-.17-2.8-.09-3.87.08-1.1.31-2.01.76-2.87.44-.85,1.05-1.58,1.91-2.31.83-.71,1.89-1.43,3.24-2.29l.08-.04c.42-.27.74-.46,1.01-.63l.05-.03c.77-.47,1.21-.74,1.42-1.12.23-.4.29-1.04.31-2.26.01-.71.04-1.36.13-1.98.09-.65.24-1.25.5-1.82.3-.64.71-1.2,1.28-1.68.56-.47,1.28-.85,2.19-1.14.45-.14.92-.09,1.31.11s.7.56.85,1.01c.14.45.09.92-.11,1.31s-.56.7-1.01.85c-.42.13-.73.29-.96.46-.2.15-.34.33-.43.52-.12.26-.2.6-.24.99-.05.43-.07.91-.08,1.43-.04,2.07-.16,3.17-.66,4.02-.51.87-1.31,1.36-2.74,2.24l-.51.31-.45.28-.1.07c-1.14.73-2.02,1.31-2.67,1.84-.62.5-1.03.95-1.27,1.42-.24.47-.36,1.04-.4,1.8-.04.8.01,1.82.11,3.11.06.82.11,1.49.14,2.1.02.5.02.9,0,1.24h0Zm-19.75,25.4c.36.28.58.67.65,1.09.07.43-.02.89-.3,1.28h-.01c-.28.39-.68.62-1.11.69s-.89-.02-1.28-.3h0c-.25-.18-.48-.37-.69-.58-.22-.21-.42-.44-.6-.68-.54-.71-.93-1.53-1.16-2.41-.24-.91-.32-1.89-.25-2.86.06-.92.26-1.86.58-2.75.31-.87.74-1.71,1.28-2.46h0c.25-.34.52-.67.81-.98.29-.3.59-.57.92-.82l.08-.07c.48-.36.99-.68,1.53-.96s1.11-.52,1.7-.72c.6-.2,1.22-.37,1.87-.5.64-.13,1.31-.22,2-.28h.14s6,0,6,0c.48,0,.91.19,1.22.5l.03.03c.29.31.47.73.47,1.18,0,.48-.19.91-.5,1.22s-.74.5-1.22.5h-5.95c-.53.05-1.04.12-1.54.22-.5.1-.98.22-1.42.37-.42.14-.83.31-1.21.51-.37.19-.72.4-1.04.64l-.07.09c-.19.15-.37.31-.54.48-.18.18-.34.38-.49.59-.35.48-.63,1.03-.84,1.61-.21.59-.34,1.21-.38,1.82h0c-.04.6,0,1.17.13,1.68.12.48.31.91.59,1.27l.02.03c.08.1.16.19.25.28h0c.09.09.19.17.3.25l.03.05h0Zm-26.49-2.36c-.45.11-.9.03-1.28-.2h0c-.38-.23-.67-.6-.79-1.06-.12-.46-.03-.92.19-1.3h0c.23-.38.6-.67,1.06-.79,3.91-.99,6.27-1.06,8.13-.4,1.88.67,3.15,2.04,4.93,3.94l.2.22c.73.78,1.33,1.41,1.87,1.9.51.47.97.82,1.42,1.05.43.22.9.36,1.49.44.62.09,1.36.11,2.28.1h0c.47-.01.9.18,1.22.48.31.3.51.73.52,1.21h0v.06c0,.45-.19.87-.48,1.17-.3.31-.73.51-1.2.52h-.05c-1.18.02-2.14-.02-2.98-.16-.88-.14-1.64-.38-2.37-.76-.71-.36-1.35-.83-2.03-1.44-.66-.59-1.36-1.32-2.2-2.22l-.2-.22c-1.33-1.43-2.29-2.46-3.6-2.92-1.33-.46-3.1-.39-6.09.37h-.04Zm37.02-41.73c-.11-.31-.24-.6-.39-.88-.2-.36-.44-.69-.69-.97-.28-.32-.58-.59-.87-.81-.31-.23-.61-.4-.88-.51h0c-.44-.17-.77-.51-.95-.91s-.2-.87-.03-1.31h0c.17-.44.51-.77.91-.95s.87-.2,1.31-.03c.52.2,1.08.51,1.63.91.5.37,1,.82,1.46,1.35.28.32.55.67.79,1.04.14.21.27.43.39.65.23-.11.47-.22.74-.34h.03c.43-.2.91-.4,1.45-.62.54-.22,1.14-.47,1.83-.77.68-.3,1.44-.64,2.3-1.06.43-.21.9-.22,1.31-.07.42.14.78.45.98.88.21.43.22.9.07,1.31-.14.42-.45.78-.88.98-.87.42-1.67.79-2.39,1.1-.69.3-1.32.56-1.89.8-.02.01-.05.02-.08.03-2.72,1.13-3.31,1.39-3.6,4.54v.11c-.19,1.89-.32,3.36-.84,4.76-.52,1.42-1.41,2.71-3.08,4.2-.35.32-.8.46-1.24.43-.44-.03-.87-.22-1.19-.57s-.46-.8-.43-1.24c.03-.44.22-.87.57-1.19,1.18-1.05,1.8-1.97,2.16-2.98.37-1.04.48-2.21.62-3.71v-.11c.1-.99.21-1.8.36-2.47.14-.63.31-1.15.52-1.59h0ZM4.87,45.86v-.07c.03-.45.23-.86.54-1.15.32-.3.75-.48,1.21-.46h.07c.45.03.86.23,1.15.54.3.32.48.76.46,1.23-.06,1.82.52,2.94,1.45,3.73.98.83,2.38,1.34,3.86,1.88,2.21.81,4.55,1.66,6.46,3.42,1.92,1.77,3.37,4.41,3.71,8.74.04.47-.12.92-.41,1.25-.29.34-.7.56-1.17.6s-.92-.12-1.25-.41c-.34-.29-.56-.7-.6-1.17-.26-3.26-1.35-5.23-2.8-6.54l-.03-.03c-1.46-1.31-3.33-1.99-5.09-2.63-2.01-.73-3.91-1.43-5.32-2.71-1.44-1.31-2.33-3.18-2.24-6.22h0Zm80.42,26.71c.68.3,1.37.54,2.09.73,1.15.3,2.34.48,3.57.53,1.69.07,3.46-.08,5.3-.42,1.85-.34,3.77-.87,5.75-1.56.45-.16.92-.12,1.31.08.4.19.72.53.87.98.16.45.12.92-.08,1.31-.19.4-.53.72-.98.87-2.16.76-4.28,1.34-6.33,1.71-2.06.37-4.06.54-5.99.46-1.91-.08-3.75-.4-5.49-.99-1.68-.57-3.28-1.38-4.77-2.47l-5.46,1.41c1.13,1.38,2.32,2.56,3.59,3.54,1.44,1.11,2.98,1.94,4.63,2.49,1.8.59,3.75.84,5.85.71,2.12-.13,4.4-.65,6.85-1.57.44-.17.91-.14,1.31.04.4.18.73.52.9.96s.14.91-.04,1.31c-.18.4-.52.73-.96.9-2.82,1.07-5.47,1.66-7.96,1.8-2.5.14-4.84-.16-7.02-.88-2.09-.69-4.03-1.76-5.83-3.17-1.69-1.33-3.26-2.97-4.71-4.89-.49.2-.99.41-1.51.62-.41.17-.83.34-1.26.51,1.12,1.61,2.29,3.04,3.5,4.29,1.34,1.39,2.72,2.55,4.14,3.48,1.29.84,2.59,1.49,3.91,1.92,1.28.42,2.56.65,3.84.67l.11-.02h.04c.05-.01.09-.01.13-.01,4.35-.23,7.99-.77,10.98-1.69,2.96-.91,5.3-2.19,7.08-3.92,1.67-1.63,2.88-3.68,3.7-6.24.78-2.44,1.19-5.33,1.3-8.73l-7.54,1.47-14.82,3.77h0Zm1.29,18.62l1.75,15.59c.05.46-.1.91-.37,1.25-.27.34-.68.58-1.15.63h-.02c-.46.05-.91-.1-1.25-.37-.34-.27-.58-.68-.63-1.15l-1.78-15.84c-1.37-.12-2.73-.42-4.07-.89-1.49-.52-2.96-1.26-4.39-2.2-1.67-1.1-3.31-2.47-4.87-4.11-1.47-1.54-2.87-3.31-4.19-5.29-.77.28-1.54.54-2.29.78-.89.29-1.75.54-2.58.77l-.24.06c1.57,2.8,3.3,4.92,5.06,6.65,1.88,1.85,3.8,3.25,5.58,4.54,2.64,1.93,5.01,3.66,6.7,6.18,1.7,2.54,2.68,5.83,2.51,10.85-.02.47-.22.9-.54,1.2-.32.3-.76.48-1.23.46-.47-.01-.9-.22-1.2-.54-.3-.32-.48-.76-.46-1.23.14-4.14-.67-6.85-2.07-8.92-1.41-2.09-3.45-3.58-5.73-5.23-1.97-1.44-4.1-2.99-6.2-5.09-2.06-2.06-4.09-4.63-5.92-8.12-1.26.2-2.47.31-3.6.29-1.24-.01-2.38-.17-3.43-.48-2.2-.12-4.31-.34-6.31-.71-2.03-.37-3.94-.88-5.71-1.55-1.72-.66-3.32-1.47-4.76-2.48-1.37-.95-2.61-2.06-3.69-3.36-1.42.18-2.81.3-4.18.34-1.46.04-2.89,0-4.28-.13-1.52-.14-3-.4-4.43-.77-1.43-.37-2.82-.87-4.16-1.49-2.1-.98-3.8-2.02-5.2-3.16-1.41-1.16-2.52-2.42-3.41-3.84-.87-1.39-1.52-2.91-2.03-4.61-.5-1.67-.88-3.53-1.22-5.61-.63-3.88-.73-7.42-.41-10.67.32-3.27,1.08-6.25,2.17-9.01,1.08-2.75,2.48-5.27,4.12-7.62,1.63-2.35,3.48-4.53,5.46-6.62.98-1.23,2.05-2.35,3.18-3.39,1.13-1.03,2.34-1.98,3.6-2.87,1.24-.86,2.53-1.66,3.86-2.41,1.32-.75,2.67-1.44,4.03-2.09,4.37-3.09,8.72-5.25,13.07-6.67C44.03.83,48.4.15,52.8.02c4.34-.13,8.7.29,13.12,1.07,4.39.77,8.84,1.9,13.39,3.21,4.81-.09,8.87.43,12.33,1.46,3.5,1.03,6.39,2.57,8.82,4.49,2.41,1.9,4.34,4.15,5.97,6.64,1.6,2.45,2.89,5.11,4.03,7.89,1.28,1.17,2.51,2.47,3.68,3.87,1.18,1.42,2.28,2.93,3.28,4.51,1.49,2.36,2.75,4.88,3.69,7.45.89,2.44,1.48,4.92,1.69,7.37.24,2.69.02,5.34-.75,7.85-.72,2.33-1.92,4.52-3.69,6.5-.6.66-1.25,1.3-1.96,1.89-.69.58-1.44,1.13-2.26,1.65-.1.07-.21.14-.33.19-.11.05-.23.09-.36.11l-2.35.46c-.07,4.06-.55,7.53-1.49,10.48-.99,3.08-2.48,5.6-4.57,7.63-2.02,1.97-4.57,3.44-7.71,4.5-3.02,1-6.58,1.63-10.75,1.95h0Z"/>
  </g>
</svg>